# xmcd
#
# Track frame offsets: 
#        150
#        26725
#        43322
#        77900
#        93997
#        128885
#        144522
#        176352
#        191935
#        208117
#        224817
#        240060
#        256010
#        283700
#
# Disc length: 3834 seconds
#
# Revision: 8
# Processed by: cddbd v1.5.2PL0 Copyright (c) Steve Scherf et al.
# Submitted via: ExactAudioCopy v0.99pb5
#
DISCID=d00ef80e
DTITLE=Lester Young - Lester Young with The Oscar Peterson Trio
DYEAR=1952
DGENRE=Jazz
TTITLE0=Ad Lib Blues
TTITLE1=I Can't Get Started
TTITLE2=Just You, Just Me
TTITLE3=Almost Like Being In Love
TTITLE4=Tea For Two
TTITLE5=There Will Never Be Another You
TTITLE6=(Back Home Again In) Indiana
TTITLE7=On The Sunny Side Of The Street
TTITLE8=Star Dust
TTITLE9=I'm Confessin'
TTITLE10=I Can't Give You Anything But Love
TTITLE11=These Foolish Things
TTITLE12=(It Takes) Two To Tango
TTITLE13=I Can't Get Started [false start]
EXTD=Verve\n521 451 2\ngatefold digipak\n YEAR: 1952
EXTT0=
EXTT1=
EXTT2=
EXTT3=
EXTT4=
EXTT5=
EXTT6=
EXTT7=
EXTT8=
EXTT9=
EXTT10=
EXTT11=
EXTT12=
EXTT13=\n
PLAYORDER=
